<svg width="375" height="812" viewBox="0 0 375 812" fill="none" xmlns="http://www.w3.org/2000/svg">
<g clip-path="url(#clip0_445_6189)">
<rect width="375" height="812" fill="#F9FAFA"/>
<g clip-path="url(#clip1_445_6189)">
<path d="M375 0H0V250H375V0Z" fill="#B0D3E0"/>
<path d="M209.514 10.6249L209.56 10.4092C209.499 10.4148 209.438 10.4148 209.378 10.4092C209.427 10.4785 209.473 10.5505 209.514 10.6249Z" fill="#F8AA55"/>
<path d="M329.694 34.6025L329.971 34.3906C329.596 34.4171 329.615 34.4966 329.694 34.6025Z" fill="#F8AA55"/>
<path d="M176.594 251.244L176.163 252.065C176.227 252.099 176.296 252.125 176.364 252.156C176.454 251.826 176.526 251.527 176.594 251.244Z" fill="#F8AA55"/>
<path d="M174.699 249.155L174.548 249.42C174.611 249.424 174.673 249.437 174.733 249.457C174.716 249.357 174.704 249.256 174.699 249.155Z" fill="#F8AA55"/>
<path d="M176.372 252.159C177.129 252.469 178.018 252.515 178.529 253.294C178.412 253.514 178.241 253.847 178.067 254.176C177.893 254.505 177.746 254.846 177.636 255.069C177.821 255.708 178.434 255.447 178.835 255.652C178.623 256.087 178.412 256.526 178.612 256.616C178.643 256.677 178.686 256.73 178.738 256.774C178.79 256.817 178.85 256.85 178.915 256.87C178.98 256.89 179.048 256.897 179.115 256.891C179.183 256.884 179.249 256.864 179.308 256.832C179.64 256.659 179.916 256.397 180.107 256.075C179.941 255.693 179.814 255.295 179.728 254.887C179.649 254.471 179.596 254.04 179.558 253.616L179.46 252.398C179.448 252.057 179.415 251.717 179.361 251.38C179.259 250.801 179.059 250.441 178.604 250.498C178.15 250.555 177.432 251.032 176.372 252.159Z" fill="#F8AA55"/>
<path d="M176.831 247.657C176.342 248.448 175.915 249.269 175.457 250.075C175.76 250.57 176.04 251.153 176.615 251.149C176.942 250.015 177.015 248.823 176.831 247.657Z" fill="#F8AA55"/>
<path d="M374.528 161.874L374.997 162.147C374.683 161.723 374.604 161.757 374.528 161.874Z" fill="#F8AA55"/>
<path d="M4.53814 56.0643L3.84192 55.8335C3.81922 55.9016 3.80408 55.9735 3.78516 56.0454C4.05759 56.0643 4.30354 56.0643 4.53814 56.0643Z" fill="#F8AA55"/>
<path d="M6.06028 53.7603L5.84082 53.6846C5.8467 53.7462 5.8467 53.8083 5.84082 53.87C5.91148 53.8286 5.98479 53.792 6.06028 53.7603Z" fill="#F8AA55"/>
<path d="M37.8014 186.56L37.5479 186.874C37.9262 186.73 37.9035 186.654 37.8014 186.56Z" fill="#F8AA55"/>
<path d="M56.2822 153.686L56.3806 153.425C56.4298 153.16 56.479 152.888 56.5244 152.627C56.4449 152.979 56.3655 153.308 56.2822 153.686Z" fill="#F8AA55"/>
<path d="M57.2246 157.754C57.0809 158.132 56.903 158.477 56.7441 158.836L56.4111 160.168L56.7895 159.434C56.9295 158.87 57.1036 158.321 57.2246 157.754Z" fill="#F8AA55"/>
<path d="M348.564 218.733C348.178 218.627 347.83 218.412 347.562 218.114C347.294 217.817 347.116 217.449 347.051 217.053C346.86 215.892 346.975 214.7 347.385 213.597C347.795 212.493 348.486 211.516 349.389 210.761C350.082 210.174 350.934 209.806 351.837 209.705C352.287 209.661 352.741 209.724 353.162 209.889C353.583 210.054 353.959 210.316 354.259 210.655C354.771 211.384 355.004 212.273 354.917 213.16C354.905 213.834 354.79 214.503 354.577 215.143C354.128 216.33 353.292 217.33 352.203 217.982C351.115 218.634 349.837 218.899 348.579 218.733H348.564Z" fill="#FDEAC0"/>
<path d="M348.564 188.524C348.178 188.417 347.831 188.202 347.563 187.904C347.294 187.607 347.117 187.239 347.051 186.844C346.86 185.682 346.975 184.491 347.385 183.387C347.795 182.284 348.486 181.306 349.389 180.551C350.081 179.962 350.934 179.595 351.837 179.496C352.287 179.451 352.741 179.513 353.162 179.677C353.583 179.842 353.959 180.104 354.259 180.442C354.77 181.172 355.003 182.06 354.917 182.947C354.905 183.621 354.79 184.289 354.577 184.929C354.129 186.117 353.293 187.119 352.204 187.771C351.115 188.424 349.838 188.689 348.579 188.524H348.564Z" fill="#FDEAC0"/>
<path d="M340.602 203.428C340.216 203.32 339.869 203.104 339.601 202.806C339.333 202.508 339.155 202.14 339.089 201.745C338.899 200.583 339.015 199.392 339.425 198.289C339.835 197.186 340.525 196.208 341.427 195.452C342.119 194.865 342.972 194.498 343.875 194.4C344.325 194.355 344.779 194.417 345.2 194.581C345.621 194.746 345.997 195.008 346.297 195.346C346.807 196.076 347.042 196.964 346.959 197.851C346.943 198.526 346.827 199.194 346.614 199.834C346.167 201.022 345.331 202.023 344.242 202.676C343.153 203.328 341.876 203.594 340.617 203.428H340.602Z" fill="#FDEAC0"/>
<path d="M367.179 214.185C366.793 214.077 366.446 213.861 366.178 213.563C365.91 213.265 365.733 212.897 365.666 212.502C365.477 211.34 365.594 210.149 366.006 209.046C366.417 207.944 367.108 206.967 368.012 206.213C368.703 205.625 369.554 205.257 370.456 205.157C370.906 205.111 371.36 205.173 371.781 205.338C372.202 205.502 372.578 205.765 372.878 206.103C373.438 206.788 373.566 207.726 373.54 208.608C373.528 209.283 373.412 209.952 373.196 210.591C372.749 211.779 371.913 212.781 370.824 213.434C369.735 214.086 368.457 214.351 367.198 214.185H367.179Z" fill="#FDEAC0"/>
<path d="M371.875 189.341C371.605 189.267 371.361 189.117 371.173 188.909C370.985 188.702 370.859 188.445 370.812 188.168C370.68 187.358 370.76 186.527 371.046 185.758C371.332 184.988 371.813 184.306 372.443 183.779C372.926 183.37 373.52 183.114 374.149 183.045C374.463 183.014 374.779 183.057 375.072 183.172C375.365 183.286 375.628 183.468 375.837 183.703C376.194 184.213 376.358 184.832 376.298 185.452C376.288 185.921 376.207 186.387 376.06 186.833C375.748 187.662 375.165 188.361 374.405 188.816C373.645 189.272 372.754 189.457 371.875 189.341Z" fill="#FDEAC0"/>
<path d="M368.921 233.017C368.536 232.91 368.189 232.695 367.921 232.397C367.653 232.1 367.475 231.732 367.408 231.337C367.215 230.176 367.328 228.984 367.735 227.88C368.143 226.775 368.831 225.796 369.731 225.037C370.425 224.451 371.277 224.084 372.179 223.982C372.629 223.937 373.083 224 373.504 224.165C373.925 224.33 374.301 224.593 374.601 224.931C375.161 225.613 375.29 226.551 375.263 227.436C375.247 228.111 375.131 228.779 374.919 229.419C374.471 230.607 373.635 231.608 372.546 232.26C371.457 232.912 370.18 233.176 368.921 233.01V233.017Z" fill="#FDEAC0"/>
<path d="M354.235 201.245C353.849 201.137 353.502 200.921 353.234 200.623C352.966 200.325 352.788 199.957 352.721 199.561C352.527 198.399 352.64 197.206 353.047 196.1C353.454 194.994 354.143 194.013 355.045 193.254C355.738 192.667 356.59 192.299 357.493 192.198C357.943 192.153 358.397 192.216 358.818 192.381C359.239 192.546 359.615 192.809 359.914 193.148C360.425 193.878 360.66 194.766 360.577 195.653C360.561 196.327 360.445 196.995 360.232 197.635C359.785 198.823 358.949 199.825 357.86 200.477C356.771 201.13 355.494 201.395 354.235 201.23V201.245Z" fill="#FDEAC0"/>
<g opacity="0.6">
<path d="M9.57803 211.778C9.19242 211.67 8.84539 211.455 8.57741 211.157C8.30943 210.86 8.13154 210.492 8.06451 210.098C7.87122 208.935 7.98417 207.743 8.39223 206.637C8.80028 205.532 9.48937 204.552 10.3915 203.794C11.0836 203.208 11.9344 202.84 12.8359 202.738C13.286 202.692 13.7405 202.755 14.1617 202.92C14.5829 203.085 14.9586 203.348 15.2575 203.688C15.8175 204.369 15.9461 205.307 15.9197 206.189C15.9076 206.865 15.7915 207.535 15.5753 208.176C15.1296 209.365 14.2942 210.369 13.2051 211.023C12.1161 211.677 10.8376 211.943 9.57803 211.778Z" fill="#B0D3E0"/>
<path d="M9.57791 181.568C9.19201 181.46 8.84486 181.244 8.5769 180.946C8.30894 180.648 8.1312 180.28 8.0644 179.884C7.87563 178.723 7.99231 177.533 8.40296 176.43C8.81361 175.327 9.5041 174.351 10.4066 173.596C11.0923 173.011 11.9366 172.643 12.832 172.54C13.2817 172.494 13.7359 172.556 14.157 172.721C14.578 172.885 14.9539 173.147 15.2536 173.486C15.8136 174.171 15.9422 175.109 15.9158 175.991C15.904 176.666 15.7879 177.334 15.5714 177.974C15.1244 179.162 14.2884 180.164 13.1995 180.816C12.1105 181.469 10.8328 181.734 9.57413 181.568H9.57791Z" fill="#B0D3E0"/>
<path d="M1.62051 196.472C1.23133 196.367 0.880393 196.152 0.608941 195.854C0.337489 195.556 0.156792 195.186 0.0880784 194.789C-0.100993 193.627 0.0155223 192.436 0.426172 191.332C0.836821 190.229 1.52747 189.252 2.43024 188.496C3.12545 187.908 3.98052 187.54 4.88592 187.441C5.3359 187.396 5.78999 187.459 6.21093 187.624C6.63188 187.789 7.00769 188.052 7.30755 188.39C7.81846 189.12 8.05194 190.008 7.96593 190.895C7.95364 191.569 7.83881 192.238 7.62538 192.878C7.1772 194.065 6.34097 195.066 5.25234 195.719C4.16372 196.371 2.88657 196.637 1.62808 196.472H1.62051Z" fill="#B0D3E0"/>
<path d="M41.8652 214.389C41.4793 214.28 41.1321 214.064 40.8642 213.766C40.5962 213.468 40.4185 213.1 40.3517 212.705C40.1659 211.549 40.2822 210.365 40.6893 209.268C41.0964 208.171 41.7804 207.197 42.6749 206.443C43.368 205.856 44.2203 205.488 45.123 205.387C45.573 205.342 46.0272 205.405 46.4482 205.57C46.8692 205.735 47.245 205.998 47.5446 206.337C48.0551 207.067 48.2897 207.955 48.2068 208.842C48.1913 209.516 48.0753 210.184 47.8625 210.824C47.4149 212.012 46.5787 213.014 45.49 213.666C44.4012 214.319 43.1237 214.584 41.8652 214.419V214.389Z" fill="#B0D3E0"/>
<path d="M53.1919 201.021C52.8064 200.911 52.4597 200.695 52.1919 200.397C51.9241 200.099 51.746 199.732 51.6784 199.337C51.4889 198.175 51.6048 196.984 52.0148 195.881C52.4247 194.778 53.1147 193.8 54.0168 193.044C54.7101 192.458 55.5624 192.092 56.4649 191.992C56.9146 191.947 57.3687 192.009 57.7897 192.174C58.2107 192.338 58.5867 192.6 58.8865 192.938C59.4465 193.623 59.5752 194.562 59.5487 195.443C59.5332 196.118 59.4172 196.786 59.2043 197.426C58.7573 198.614 57.9213 199.616 56.8324 200.269C55.7434 200.922 54.4657 201.186 53.207 201.021H53.1919Z" fill="#B0D3E0"/>
<path d="M40.6055 201.021C40.22 200.912 39.8734 200.695 39.6055 200.398C39.3377 200.1 39.1597 199.732 39.092 199.337C38.9029 198.175 39.0194 196.984 39.4301 195.881C39.8407 194.777 40.5314 193.8 41.4341 193.045C42.1264 192.459 42.9774 192.093 43.8785 191.993C44.3282 191.947 44.7824 192.009 45.2035 192.173C45.6246 192.338 46.0004 192.6 46.3001 192.939C46.8601 193.623 46.9887 194.562 46.9623 195.443C46.9487 196.118 46.8326 196.787 46.6179 197.426C46.1709 198.614 45.3349 199.616 44.246 200.269C43.157 200.922 41.8793 201.187 40.6206 201.021H40.6055Z" fill="#B0D3E0"/>
<path d="M28.1976 207.23C27.8122 207.12 27.4655 206.904 27.1977 206.606C26.9298 206.308 26.7518 205.941 26.6841 205.546C26.4928 204.386 26.6064 203.196 27.0137 202.092C27.421 200.989 28.108 200.011 29.0074 199.253C29.7016 198.669 30.5534 198.303 31.4555 198.201C31.9052 198.156 32.3593 198.218 32.7803 198.383C33.2013 198.547 33.5773 198.809 33.8771 199.147C34.4371 199.832 34.5658 200.771 34.5393 201.652C34.5238 202.327 34.4078 202.995 34.195 203.635C33.7479 204.823 32.9119 205.825 31.823 206.478C30.7341 207.131 29.4563 207.395 28.1976 207.23Z" fill="#B0D3E0"/>
<path d="M46.5621 226.799C46.291 226.726 46.0466 226.576 45.8576 226.368C45.6686 226.161 45.5428 225.903 45.495 225.626C45.3632 224.817 45.4443 223.987 45.7302 223.218C46.0161 222.449 46.4971 221.768 47.1259 221.241C47.6066 220.824 48.2008 220.561 48.8323 220.484C49.1466 220.452 49.4639 220.496 49.758 220.611C50.0521 220.726 50.3145 220.91 50.5237 221.146C50.8806 221.654 51.0443 222.273 50.9853 222.891C50.9753 223.362 50.8936 223.829 50.7432 224.276C50.4307 225.103 49.8477 225.801 49.0887 226.256C48.3297 226.711 47.4393 226.895 46.5621 226.78V226.799Z" fill="#B0D3E0"/>
<path d="M32.8864 182.385C32.6155 182.311 32.3714 182.161 32.1824 181.954C31.9935 181.746 31.8676 181.489 31.8193 181.212C31.6873 180.402 31.7686 179.571 32.0552 178.801C32.3418 178.031 32.8239 177.35 33.454 176.823C33.9356 176.412 34.5305 176.156 35.1604 176.089C35.4737 176.058 35.79 176.101 36.0833 176.215C36.3766 176.33 36.6387 176.512 36.848 176.747C37.2052 177.256 37.3689 177.876 37.3096 178.495C37.2995 178.965 37.2179 179.431 37.0675 179.877C36.757 180.702 36.1773 181.398 35.422 181.854C34.6668 182.309 33.7801 182.496 32.9053 182.385H32.8864Z" fill="#B0D3E0"/>
<path d="M29.9383 226.061C29.5522 225.955 29.2047 225.74 28.9366 225.442C28.6685 225.144 28.4909 224.777 28.4248 224.381C28.2349 223.22 28.3506 222.029 28.7606 220.926C29.1706 219.822 29.8608 218.845 30.7631 218.089C31.4563 217.502 32.3085 217.134 33.2113 217.033C33.6612 216.989 34.1153 217.052 34.5363 217.217C34.9572 217.382 35.333 217.645 35.6329 217.983C36.1447 218.712 36.3783 219.601 36.2913 220.488C36.2783 221.162 36.1635 221.831 35.9507 222.471C35.5025 223.658 34.6661 224.658 33.5773 225.31C32.4886 225.962 31.2115 226.227 29.9534 226.061H29.9383Z" fill="#B0D3E0"/>
<path d="M15.2514 194.289C14.8653 194.181 14.5179 193.966 14.2499 193.667C13.9818 193.369 13.8042 193.001 13.7379 192.605C13.5472 191.444 13.6626 190.253 14.0726 189.149C14.4827 188.046 15.1733 187.068 16.0762 186.313C16.7637 185.728 17.6089 185.359 18.5054 185.254C18.9554 185.209 19.4095 185.272 19.8304 185.437C20.2514 185.602 20.6272 185.865 20.9271 186.203C21.438 186.933 21.6715 187.821 21.5854 188.708C21.5731 189.382 21.4583 190.051 21.2449 190.691C20.7967 191.878 19.9605 192.879 18.8719 193.532C17.7832 194.184 16.5061 194.45 15.2476 194.285L15.2514 194.289Z" fill="#B0D3E0"/>
</g>
<path d="M347.173 153.686C347.173 153.686 345.508 134.097 367.344 123.15C367.363 123.15 364.113 145.028 347.173 153.686Z" fill="#6E9292"/>
<path d="M339.502 165.907C339.502 165.907 347.974 154.049 359.53 156.315C371.085 158.582 375.531 153.337 375.531 153.337C375.531 153.337 366.234 168.821 354.376 166.581C342.518 164.341 339.502 165.907 339.502 165.907Z" fill="#6E9292"/>
<path d="M339.74 165.517C339.74 165.517 345.707 152.221 337.924 143.386C330.14 134.551 332.426 128.069 332.426 128.069C332.426 128.069 323.742 143.904 331.669 153.004C339.596 162.104 339.74 165.517 339.74 165.517Z" fill="#6E9292"/>
<path d="M326.998 186.722C326.998 186.722 335.47 174.86 347.026 177.126C358.581 179.393 363.027 174.148 363.027 174.148C363.027 174.148 353.731 189.632 341.872 187.392C330.014 185.152 326.998 186.722 326.998 186.722Z" fill="#6E9292"/>
<path d="M326.956 186.794C326.956 186.794 332.931 173.516 325.136 164.662C317.341 155.808 319.638 149.342 319.638 149.342C319.638 149.342 310.958 165.177 318.881 174.281C326.805 183.385 326.956 186.794 326.956 186.794Z" fill="#6E9292"/>
<path d="M314.582 208.83C314.582 208.83 323.05 196.976 334.61 199.246C346.169 201.516 350.607 196.272 350.607 196.272C350.607 196.272 341.314 211.751 329.456 209.496C317.598 207.241 314.582 208.83 314.582 208.83Z" fill="#6E9292"/>
<path d="M314.582 208.83C314.582 208.83 320.549 195.534 312.762 186.695C304.975 177.856 307.264 171.378 307.264 171.378C307.264 171.378 298.584 187.214 306.507 196.317C314.431 205.421 314.582 208.83 314.582 208.83Z" fill="#6E9292"/>
<path d="M347.842 152.516C347.842 152.516 311.48 210.514 309.021 221.128L347.842 152.516Z" fill="#6E9292"/>
<path d="M347.842 152.516C347.842 152.516 311.48 210.514 309.021 221.128" stroke="#6D5B48" stroke-width="0.348109" stroke-miterlimit="10"/>
<path d="M267.186 135.875C267.186 135.875 274.125 117.486 256.103 101C256.118 101 253.246 122.931 267.186 135.875Z" fill="#6E9292"/>
<path d="M271.231 149.728C271.231 149.728 266.312 136.008 254.583 135.039C242.853 134.07 240 127.812 240 127.812C240 127.812 244.722 145.244 256.747 146.307C268.772 147.37 271.231 149.728 271.231 149.728Z" fill="#6E9292"/>
<path d="M271.126 149.3C271.126 149.3 269.007 134.88 278.905 128.489C288.804 122.099 288.365 115.246 288.365 115.246C288.365 115.246 292.402 132.848 282.292 139.462C272.182 146.076 271.126 149.3 271.126 149.3Z" fill="#6E9292"/>
<path d="M277.592 173.161C277.592 173.161 272.673 159.441 260.943 158.472C249.213 157.503 246.36 151.245 246.36 151.245C246.36 151.245 251.086 168.677 263.107 169.74C275.129 170.804 277.592 173.161 277.592 173.161Z" fill="#6E9292"/>
<path d="M277.611 173.244C277.611 173.244 275.495 158.824 285.394 152.433C295.292 146.042 294.853 139.19 294.853 139.19C294.853 139.19 298.887 156.792 288.78 163.406C278.674 170.02 277.611 173.244 277.611 173.244Z" fill="#6E9292"/>
<path d="M283.51 197.816C283.51 197.816 278.591 184.099 266.861 183.127C255.131 182.155 252.278 175.9 252.278 175.9C252.278 175.9 257 193.332 269.025 194.395C281.05 195.458 283.51 197.816 283.51 197.816Z" fill="#6E9292"/>
<path d="M283.51 197.816C283.51 197.816 281.395 183.4 291.293 177.005C301.192 170.61 300.753 163.762 300.753 163.762C300.753 163.762 304.786 181.364 294.68 187.978C284.573 194.592 283.51 197.816 283.51 197.816Z" fill="#6E9292"/>
<path d="M266.86 134.57C266.86 134.57 286.037 200.283 285.507 211.169L266.86 134.57Z" fill="#6E9292"/>
<path d="M266.86 134.57C266.86 134.57 286.037 200.283 285.507 211.169" stroke="#6D5B48" stroke-width="0.348109" stroke-miterlimit="10"/>
<g clip-path="url(#clip2_445_6189)">
<path d="M177.631 28.7172C179.954 31.1222 169.342 40.5477 169.342 40.5477C169.342 40.5477 172.138 43.779 180.903 44.9542C192.255 46.4742 206.196 38.1842 203.334 27.1684C202.892 25.4803 201.393 22.019 198.198 20.7806C198.641 22.1981 198.866 23.6724 198.866 25.1527C198.862 27.7009 198.332 30.2148 197.309 32.5368C197.784 30.2494 198.004 27.9133 197.964 25.5714C197.872 23.7845 197.443 22.0273 196.698 20.3932L194.957 20.0466C194.905 22.0939 194.674 27.1005 193.647 30.7502C192.333 35.4387 190.858 36.7115 190.858 36.7115C190.858 36.7115 192.198 34.8862 193.015 30.4945C193.66 27.009 193.128 21.6837 192.882 19.6586C191.354 19.3863 189.736 19.1189 188.055 18.8533C187.762 19.7426 187.486 21.96 186.075 24.5875C184.913 26.8359 183.351 28.8508 181.466 30.5352C182.835 28.446 184.074 26.2725 185.173 24.0272C185.952 22.3271 186.33 20.4667 186.278 18.5884C183.164 18.1162 179.887 17.6588 176.63 17.2311C176.165 18.7881 175.466 20.2628 174.557 21.6053C173.745 22.8965 172.564 23.9125 171.165 24.5244C172.156 23.43 173.011 22.2195 173.712 20.9186C174.354 19.7043 174.689 18.3485 174.688 16.9684C170.299 16.3992 149.822 14.1387 149.822 14.1387L168.209 15.4257C167.836 14.4329 166.35 10.6113 164.826 8.41851C163.746 6.87836 162.413 5.53125 160.885 4.43538C160.885 4.43538 162.527 5.71582 164.64 7.75205C166.457 9.49941 169.117 14.1444 169.703 15.5267L180.929 16.3078C180.463 13.7817 179.8 11.2938 178.946 8.8671C177.429 4.62949 173.859 -1.56329 173.859 -1.56329C176.099 1.2166 178.007 4.24741 179.542 7.46634C180.812 10.3721 181.857 13.3689 182.668 16.4303C185.317 16.6197 187.937 16.8039 190.445 16.9881C190.498 14.609 190.424 8.87761 189.922 6.46135C189.225 3.07133 186.163 -4.35124 186.163 -4.35124C188.394 -1.14506 189.997 2.45118 190.885 6.244C191.831 10.784 192.227 15.2662 192.457 17.1373L195.015 17.3068C195.214 17.3224 197.298 12.1771 197.582 8.52064C197.977 3.4413 197.013 -3.44311 197.013 -3.44311C197.013 -3.44311 199.128 4.02734 198.812 8.74874C198.549 11.6833 197.951 14.5741 197.029 17.3648C197.464 17.3602 197.904 17.3516 198.307 17.3126C199.618 16.3242 201.022 15.2728 201.895 13.5463C202.612 11.9391 203.029 10.2118 203.128 8.44823C203.483 10.3505 203.273 12.3086 202.524 14.0798C202.088 15.1083 201.502 16.065 200.785 16.9191C213.105 13.97 210.152 -2.90642 198.94 -9.90509C190.026 -15.4953 175.669 -14.7995 175.669 -14.7995C175.669 -14.7995 179.812 -11.2403 181.986 -7.05303C184.16 -2.86576 187.287 5.40132 183.939 7.72885C180.591 10.0564 179.94 -7.81742 173.207 -12.8747C167.527 -17.1338 156.399 -8.27498 156.399 -8.27498C156.399 -8.27498 159.119 -9.57627 163.204 -7.47525C166.871 -5.58881 173.615 6.06032 171.685 8.56068C169.189 11.795 165.218 -4.82044 155.952 -4.26363C150.653 -3.94563 149.509 2.8565 147.346 6.86231C145.859 9.4266 143.763 11.5795 141.239 13.1321C141.239 13.1321 142.648 14.9639 145.923 18.9016C149.198 22.8393 149.373 27.6825 153.416 28.3343C157.459 28.986 163.205 21.2261 164.423 23.8763C165.641 26.5265 155.139 30.6714 155.139 30.6714C155.139 30.6714 156.915 32.4172 161.018 36.5639C165.121 40.7107 175.312 26.3166 177.631 28.7172Z" fill="#6E9292"/>
</g>
<path d="M25.6085 133.986C25.6085 133.986 -7.35241 129.742 -17.6286 89.7403C-17.6286 89.7403 17.3654 102.895 25.6085 133.986Z" stroke="#6E9292" stroke-width="0.639688" stroke-miterlimit="10"/>
<path d="M43.0673 151.032C43.0673 151.032 26.498 132.793 34.3754 114.507C42.2529 96.2216 35.1783 87.0001 35.1783 87.0001C35.1783 87.0001 57.4309 107.898 49.4688 126.687C41.5068 145.475 43.0673 151.032 43.0673 151.032Z" stroke="#6E9292" stroke-width="0.639688" stroke-miterlimit="10"/>
<path d="M42.5012 150.518C42.5012 150.518 22.6631 135.904 5.28027 145.609C-12.1026 155.314 -21.9923 149.211 -21.9923 149.211C-21.9923 149.211 1.07277 169.219 18.9442 159.375C36.8156 149.531 42.5012 150.518 42.5012 150.518Z" stroke="#6E9292" stroke-width="0.639688" stroke-miterlimit="10"/>
<path d="M72.9799 179.136C72.9799 179.136 56.4159 160.901 64.2934 142.615C72.1708 124.33 65.0928 115.113 65.0928 115.113C65.0928 115.113 87.3489 136.006 79.3868 154.795C71.4247 173.583 72.9799 179.136 72.9799 179.136Z" stroke="#6E9292" stroke-width="0.639688" stroke-miterlimit="10"/>
<path d="M73.0831 179.234C73.0831 179.234 53.2539 164.618 35.8443 174.305C18.4347 183.993 8.56828 177.913 8.56828 177.913C8.56828 177.913 31.6333 197.921 49.5047 188.077C67.3761 178.234 73.0831 179.234 73.0831 179.234Z" stroke="#6E9292" stroke-width="0.639688" stroke-miterlimit="10"/>
<path d="M105.065 207.553C105.065 207.553 88.5014 189.318 96.3788 171.032C104.256 152.746 97.1836 143.534 97.1836 143.534C97.1836 143.534 119.44 164.427 111.478 183.215C103.516 202.003 105.065 207.553 105.065 207.553Z" stroke="#6E9292" stroke-width="0.639688" stroke-miterlimit="10"/>
<path d="M105.064 207.553C105.064 207.553 85.2315 192.942 67.8433 202.644C50.4551 212.345 40.5761 206.25 40.5761 206.25C40.5761 206.25 63.6411 226.258 81.5125 216.414C99.3839 206.57 105.064 207.553 105.064 207.553Z" stroke="#6E9292" stroke-width="0.639688" stroke-miterlimit="10"/>
<path d="M25.6093 133.985C25.6093 133.985 106.732 213.276 123.412 221.142" stroke="#6E9292" stroke-width="0.639688" stroke-miterlimit="10"/>
</g>
<g opacity="0.05" clip-path="url(#clip3_445_6189)">
<path d="M-14.1402 601.99C-8.20016 600.24 -11.9802 588.19 -6.19018 586.7C-0.400177 585.21 3.35984 586.53 3.35984 586.53C3.35984 586.53 -5.48017 597.48 0.0998306 596.96C5.67983 596.44 1.16982 588.69 6.95982 588.12C10.3603 587.753 13.7756 588.665 16.5398 590.68C16.5398 590.68 5.59982 600.58 10.7098 602.68C15.8198 604.78 14.7098 591.45 20.8198 588.81C24.1098 587.39 28.1198 590.44 28.1198 590.44C28.1198 590.44 12.3198 611.07 19.7198 612.58C24.0798 613.48 21.6198 605.02 25.3398 599.15C30.1298 591.58 32.6198 591.48 37.6098 596.22C40.3398 598.82 42.3998 597.96 42.3998 597.96C42.3998 597.96 40.5798 599.8 42.5898 603.17C44.5998 606.54 49.2498 611.28 41.0498 613.17C32.8498 615.06 22.4898 615.65 25.2498 618.37C28.0098 621.09 30.4198 620.7 37.9198 618.77C45.4198 616.84 48.2998 613.85 48.2998 613.85C48.2998 613.85 52.3998 618.66 48.6098 621.31C41.5398 626.24 29.9998 622.66 30.8298 626.79C31.6598 630.92 51.8298 624.79 51.8298 624.79C51.8298 624.79 53.5598 634.17 49.8298 634.68C46.0998 635.19 31.9698 637.21 35.6498 641.75C39.3298 646.29 50.2498 642.56 50.2498 642.56C50.2498 642.56 50.3498 653.18 43.7798 653.82C32.6198 654.92 24.2698 649.01 25.8498 653.4C27.4298 657.79 43.5898 656.85 43.5898 656.85C43.5898 656.85 41.8898 667.11 34.6998 667.59C27.5098 668.07 15.1298 661.65 14.0798 665.59C13.0298 669.53 30.4998 674.39 30.4998 674.39C30.4998 674.39 23.1698 684.95 18.9598 681.92C14.7498 678.89 8.14982 675.92 2.89982 671.92C-1.95018 668.17 -5.48016 661.99 -6.70016 664.36C-7.92016 666.73 -2.08018 672.98 2.76981 676.76C6.40704 679.487 10.1856 682.021 14.0898 684.35C14.0898 684.35 5.65982 691.55 1.17982 687.44C-3.30018 683.33 -14.0902 666.24 -16.3202 670.01C-18.5502 673.78 -5.10018 687.85 -5.10018 687.85C-5.10018 687.85 -20.5102 693.63 -22.3402 684.74C-24.1702 675.85 -22.0702 668.91 -26.7902 669.21C-31.5102 669.51 -27.1802 683.7 -27.1802 683.7C-27.1802 683.7 -35.5402 682.59 -35.8702 676.56C-36.5402 664.17 -27.2202 653.32 -27.2202 653.32C-30.7448 656.204 -34.6906 658.531 -38.9202 660.22C-42.7716 661.78 -46.8383 662.745 -50.9802 663.08V660.35C-50.9802 660.35 -42.4602 659.86 -38.2302 657.53C-30.4202 653.24 -28.6702 650.27 -28.6702 650.27C-28.6702 650.27 -44.1602 652.2 -47.5202 648.04C-50.8802 643.88 -49.7802 638.34 -49.7802 638.34C-49.7802 638.34 -42.6302 648.34 -40.3102 643.21C-37.9902 638.08 -47.3102 639.98 -48.9102 632.86C-50.5102 625.74 -41.4902 618.16 -41.4902 618.16C-41.4902 618.16 -36.2502 639.43 -33.9302 634.26C-31.6102 629.09 -41.8802 616.66 -41.7502 610.92C-41.6202 605.18 -32.0102 599.04 -32.0102 599.04C-32.0102 599.04 -32.4702 618.58 -28.1402 616.78C-23.8102 614.98 -30.8402 598.28 -26.4102 594.18C-21.9802 590.08 -13.4102 590.61 -13.4102 590.61C-13.4102 590.61 -20.0902 603.75 -14.1402 601.99ZM10.4998 604.11C6.49982 601.87 3.49983 619.76 6.59983 621.61C10.4698 623.85 14.5598 606.35 10.4998 604.11ZM-5.29018 622.41C-2.44019 623.12 0.829826 609.51 -3.50018 609.04C-6.87017 608.68 -8.13018 621.71 -5.29018 622.41ZM28.4098 627.85C29.1198 624.16 18.0198 621.71 18.0898 625.17C18.1598 628.63 27.6598 631.78 28.4098 627.85ZM23.9098 653.85C26.0398 651.19 9.14983 643.91 7.90983 647.91C6.66983 651.91 22.0398 656.17 23.9098 653.85ZM10.9098 665.09C13.3298 663.62 2.59982 657.09 0.679817 658.39C-1.24018 659.69 7.35983 667.23 10.9098 665.09ZM-21.3402 658.41C-23.4302 659.87 -18.9902 665.19 -17.4102 664.16C-15.8302 663.13 -18.9502 656.74 -21.3402 658.41ZM-11.9002 648.91C-12.5502 652.77 -5.12016 657.73 -3.64016 655.91C-2.00016 653.85 -11.2502 645.06 -11.9002 648.91ZM32.4098 640.8C32.8898 637.09 22.6198 635.01 19.6598 639.46C16.6998 643.91 31.8898 645.05 32.4098 640.8ZM16.7498 639.29C19.9598 635.29 9.00982 629.9 8.11982 633.62C7.22982 637.34 13.4098 643.43 16.7798 639.29H16.7498ZM-28.3802 639.92C-30.3802 641.04 -26.3302 645.13 -25.1002 644.31C-23.8702 643.49 -26.0502 638.61 -28.3502 639.92H-28.3802ZM-13.5902 634.58C-11.3002 634.3 -11.8502 626.85 -15.1802 626.79C-18.1102 626.74 -15.8202 634.85 -13.5902 634.58ZM-24.7202 629.58C-23.1302 628.96 -25.4902 618.09 -28.1802 618.89C-30.8702 619.69 -26.2502 630.16 -24.6702 629.55L-24.7202 629.58ZM-16.6402 623.51C-13.2702 623.87 -12.2902 605.9 -15.7802 604.51C-18.5902 603.39 -19.9702 623.11 -16.5902 623.48L-16.6402 623.51ZM-3.44018 607.1C0.309822 609.72 1.99984 600.37 0.169838 599.2C-2.81016 597.25 -7.14016 604.44 -3.39016 607.07L-3.44018 607.1Z" fill="#526A68"/>
</g>
</g>
<defs>
<clipPath id="clip0_445_6189">
<rect width="375" height="812" fill="white"/>
</clipPath>
<clipPath id="clip1_445_6189">
<rect width="375" height="256.897" fill="white"/>
</clipPath>
<clipPath id="clip2_445_6189">
<rect width="61" height="64" fill="white" transform="translate(224.139 15.9424) rotate(136.792)"/>
</clipPath>
<clipPath id="clip3_445_6189">
<rect width="103.71" height="103.2" fill="white" transform="matrix(0 -1 -1 0 52.1992 689.71)"/>
</clipPath>
</defs>
</svg>
