<svg width="40" height="40" viewBox="0 0 40 40" fill="none" xmlns="http://www.w3.org/2000/svg">
<rect width="40" height="40" rx="10" fill="#E6A6DB"/>
<g clip-path="url(#clip0_445_6310)">
<path d="M27.0717 12.9288C23.1664 9.02395 16.8346 9.02351 12.9288 12.9288C9.02351 16.8341 9.02395 23.166 12.9288 27.0717C16.8341 30.9762 23.166 30.9766 27.0717 27.0717C30.9766 23.166 30.9762 16.8346 27.0717 12.9288ZM21.3042 24.3482C21.3042 25.0686 20.7203 25.6526 19.9998 25.6526C19.2794 25.6526 18.6955 25.0686 18.6955 24.3482V19.1307C18.6955 18.4102 19.2794 17.8263 19.9998 17.8263C20.7203 17.8263 21.3042 18.4102 21.3042 19.1307V24.3482ZM19.9768 16.9011C19.2255 16.9011 18.7246 16.3689 18.7402 15.7119C18.7246 15.0232 19.2255 14.5071 19.992 14.5071C20.759 14.5071 21.2442 15.0236 21.2603 15.7119C21.2599 16.3689 20.7594 16.9011 19.9768 16.9011Z" fill="white"/>
</g>
<defs>
<clipPath id="clip0_445_6310">
<rect width="20" height="20" fill="white" transform="translate(10 10)"/>
</clipPath>
</defs>
</svg>
