<svg width="18" height="20" viewBox="0 0 18 20" fill="none" xmlns="http://www.w3.org/2000/svg">
<path d="M12.7491 0C11.6829 0.0737496 10.4366 0.756245 9.71041 1.64499C9.04791 2.45124 8.50292 3.64873 8.71542 4.81247C9.88041 4.84872 11.0841 4.14998 11.7816 3.24623C12.4341 2.40499 12.9279 1.21499 12.7491 0Z" fill="black"/>
<path d="M16.9629 6.70989C15.9391 5.42615 14.5004 4.68115 13.1416 4.68115C11.3479 4.68115 10.5892 5.5399 9.34291 5.5399C8.05792 5.5399 7.08168 4.68365 5.53044 4.68365C4.0067 4.68365 2.38421 5.6149 1.35546 7.20739C-0.0907803 9.44987 0.156718 13.6661 2.50045 17.2573C3.3392 18.5423 4.45919 19.9873 5.92418 19.9998C7.22793 20.0123 7.59543 19.1636 9.36166 19.1548C11.1279 19.1448 11.4629 20.0111 12.7641 19.9973C14.2304 19.9861 15.4116 18.3848 16.2504 17.0998C16.8516 16.1786 17.0754 15.7148 17.5416 14.6748C14.1504 13.3836 13.6066 8.56113 16.9629 6.70989Z" fill="black"/>
</svg>
