<svg width="33" height="32" viewBox="0 0 33 32" fill="none" xmlns="http://www.w3.org/2000/svg">
<path d="M22.6737 14.492C22.5984 14.4147 22.3139 14.084 22.049 13.812C20.4955 12.1013 16.4428 9.30133 14.3217 8.44667C13.9996 8.30933 13.1852 8.01867 12.75 8C12.3331 8 11.9356 8.096 11.5563 8.29067C11.0835 8.56267 10.7043 8.99067 10.4964 9.496C10.3626 9.84667 10.1548 10.896 10.1548 10.9147C9.94699 12.0627 9.83268 13.928 9.83268 15.9893C9.83268 17.9533 9.94699 19.7427 10.1171 20.908C10.1366 20.9267 10.3445 22.2307 10.5718 22.6773C10.9887 23.4933 11.8031 24 12.6747 24H12.75C13.3177 23.98 14.5114 23.4733 14.5114 23.4547C16.5182 22.5987 20.4773 19.936 22.0684 18.1667C22.0684 18.1667 22.5166 17.712 22.7114 17.428C23.0153 17.02 23.166 16.5147 23.166 16.0093C23.166 15.4453 22.9959 14.92 22.6737 14.492Z" fill="#282A3A"/>
</svg>
