<svg width="15" height="16" viewBox="0 0 15 16" fill="none" xmlns="http://www.w3.org/2000/svg">
<path d="M1.3253 6.492C1.40063 6.41467 1.68509 6.084 1.95007 5.812C3.50357 4.10133 7.55618 1.30133 9.6773 0.446667C9.99943 0.309333 10.8138 0.0186667 11.249 0C11.6659 0 12.0634 0.096 12.4427 0.290667C12.9155 0.562667 13.2948 0.990667 13.5026 1.496C13.6364 1.84667 13.8442 2.896 13.8442 2.91467C14.052 4.06267 14.1663 5.928 14.1663 7.98933C14.1663 9.95333 14.052 11.7427 13.8819 12.908C13.8624 12.9267 13.6546 14.2307 13.4273 14.6773C13.0103 15.4933 12.1959 16 11.3243 16H11.249C10.6814 15.98 9.48766 15.4733 9.48766 15.4547C7.48084 14.5987 3.52176 11.936 1.93059 10.1667C1.93059 10.1667 1.48246 9.712 1.28763 9.428C0.983682 9.02 0.833008 8.51467 0.833008 8.00933C0.833008 7.44533 1.00317 6.92 1.3253 6.492Z" fill="#282A3A"/>
</svg>
