<svg width="164" height="154" viewBox="0 0 164 154" fill="none" xmlns="http://www.w3.org/2000/svg">
<path fill-rule="evenodd" clip-rule="evenodd" d="M63.6172 11.6523C83.8174 3.73561 107.571 2.35095 125.757 15.9669C144.486 29.9897 154.011 54.8987 153.398 78.8715C152.84 100.707 138.889 117.828 122.826 130.686C108.233 142.368 90.3788 146.866 71.8941 144.116C51.3838 141.064 28.3653 135.057 18.6822 115.193C9.10539 95.5471 19.6302 73.7273 28.085 54.2454C36.0008 36.0055 45.9308 18.5838 63.6172 11.6523Z" fill="#EBF8F8"/>
<circle cx="10" cy="64.4355" r="10" fill="#F3F4F8"/>
<g clip-path="url(#clip0_528_13825)">
<path d="M115.102 65.2392L73.1435 107.198C71.247 109.094 68.1729 109.094 66.2771 107.198L41.5859 82.507C39.6901 80.6105 39.6901 77.5364 41.5859 75.6405L83.5442 33.6816C85.4407 31.7858 88.5148 31.7858 90.4106 33.6816L115.102 58.3727C116.998 60.2686 116.998 63.3434 115.102 65.2392Z" fill="#7ACBD0"/>
<path d="M115.102 58.3732L112.021 55.2915C113.709 56.98 113.54 59.8859 111.644 61.7817L69.6855 103.741C67.7897 105.637 64.8838 105.805 63.1953 104.117L66.277 107.199C68.1728 109.094 71.2469 109.094 73.1435 107.199L115.102 65.2396C116.998 63.3438 116.998 60.269 115.102 58.3732Z" fill="#526A68"/>
<path d="M49.6537 80.7804C49.3158 80.7804 48.9787 80.6513 48.7212 80.3939C48.2062 79.8789 48.2062 79.0446 48.7212 78.5296L69.2732 57.9775C69.7882 57.4626 70.6232 57.4626 71.1375 57.9775C71.6524 58.4925 71.6524 59.3275 71.1375 59.8418L50.5854 80.3945C50.328 80.6513 49.9908 80.7804 49.6537 80.7804Z" fill="#526A68"/>
<path d="M56.1859 87.3116C55.8481 87.3116 55.5109 87.1826 55.2534 86.9251C54.7384 86.4101 54.7384 85.5758 55.2534 85.0608L75.8055 64.5088C76.3204 63.9938 77.1554 63.9938 77.6697 64.5088C78.1847 65.0238 78.1847 65.8587 77.6697 66.373L57.1177 86.9251C56.8602 87.1826 56.523 87.3116 56.1859 87.3116Z" fill="#526A68"/>
<path d="M82.8591 43.2455L78.7474 47.3564C77.1311 48.9728 77.1311 51.593 78.7474 53.2094C80.3638 54.8258 82.9847 54.8258 84.6011 53.2094L88.7121 49.0985C90.3284 47.4821 90.3284 44.8618 88.7121 43.2455C87.0957 41.6291 84.4748 41.6291 82.8591 43.2455Z" fill="#F8AA55"/>
<path d="M119.064 77.6309H59.7254C57.044 77.6309 54.8701 79.8048 54.8701 82.4861V117.405C54.8701 120.086 57.044 122.26 59.7254 122.26H119.064C121.746 122.26 123.919 120.086 123.919 117.405V82.4861C123.92 79.8048 121.746 77.6309 119.064 77.6309Z" fill="#F8AA55"/>
<path d="M119.064 77.6309H114.718C117.399 77.6309 119.573 79.8048 119.573 82.4861V117.405C119.573 120.086 117.399 122.26 114.718 122.26H119.064C121.746 122.26 123.919 120.086 123.919 117.405V82.4861C123.919 79.8048 121.746 77.6309 119.064 77.6309Z" fill="#FF9800"/>
<path d="M54.8701 88.6006H123.92V96.9894H54.8701V88.6006Z" fill="#575B7A"/>
<path d="M119.573 88.6006H123.919V96.9894H119.573V88.6006Z" fill="#252D4C"/>
<path d="M106.948 110.393V115.567C106.948 115.968 107.272 116.292 107.673 116.292H115.902C116.302 116.292 116.627 115.968 116.627 115.567V110.393C116.627 109.993 116.302 109.669 115.902 109.669H107.673C107.272 109.669 106.948 109.993 106.948 110.393Z" fill="#E9E9EA"/>
<path d="M82.1357 110.393V115.567C82.1357 115.968 82.4605 116.292 82.8602 116.292H100.267C100.667 116.292 100.991 115.968 100.991 115.567V110.393C100.991 109.993 100.667 109.669 100.267 109.669H82.8602C82.4605 109.669 82.1357 109.993 82.1357 110.393Z" fill="#E9E9EA"/>
<path d="M75.0408 117.61H66.3691C65.6406 117.61 65.0508 117.019 65.0508 116.292C65.0508 115.563 65.6406 114.973 66.3691 114.973H75.0408C75.7693 114.973 76.3592 115.563 76.3592 116.292C76.3592 117.019 75.7693 117.61 75.0408 117.61Z" fill="#526A68"/>
</g>
<defs>
<clipPath id="clip0_528_13825">
<rect width="90" height="90" fill="white" transform="translate(37 32.4355)"/>
</clipPath>
</defs>
</svg>
