<svg width="40" height="33" viewBox="0 0 40 33" fill="none" xmlns="http://www.w3.org/2000/svg">
<rect width="40" height="32.5" rx="4" fill="#EBF8F8"/>
<path d="M32 11.8906V10.625C32 9.17525 30.8248 8 29.375 8H10.625C9.17525 8 8 9.17525 8 10.625V11.8906C8 12.02 8.10495 12.125 8.23438 12.125H31.7656C31.895 12.125 32 12.02 32 11.8906Z" fill="black"/>
<path d="M8 13.8594V21.875C8 23.3247 9.17525 24.5 10.625 24.5H29.375C30.8248 24.5 32 23.3247 32 21.875V13.8594C32 13.73 31.895 13.625 31.7656 13.625H8.23438C8.10495 13.625 8 13.73 8 13.8594ZM14 20C14 20.4142 13.6642 20.75 13.25 20.75H12.5C12.0858 20.75 11.75 20.4142 11.75 20V19.25C11.75 18.8358 12.0858 18.5 12.5 18.5H13.25C13.6642 18.5 14 18.8358 14 19.25V20Z" fill="black"/>
</svg>
