<svg width="17" height="17" viewBox="0 0 17 17" fill="none" xmlns="http://www.w3.org/2000/svg">
<path fill-rule="evenodd" clip-rule="evenodd" d="M15.3324 7.03675H7.20228V15.1668H14.1941C14.4959 15.1668 14.7854 15.0468 14.999 14.8335C15.2123 14.6198 15.3324 14.3304 15.3324 14.0286V7.03675ZM6.22667 7.03675H1.99902V14.0286C1.99902 14.3304 2.11902 14.6198 2.33235 14.8335C2.54601 15.0468 2.83545 15.1668 3.13723 15.1668H6.22667V7.03675ZM1.99902 6.06114H15.3324V2.97171C15.3324 2.66992 15.2123 2.3805 14.999 2.16684C14.7854 1.9535 14.4959 1.8335 14.1941 1.8335C12.0582 1.8335 5.27317 1.8335 3.13723 1.8335C2.83545 1.8335 2.54601 1.9535 2.33235 2.16684C2.11902 2.3805 1.99902 2.66992 1.99902 2.97171V6.06114Z" fill="white"/>
</svg>
