<svg width="25" height="25" viewBox="0 0 25 25" fill="none" xmlns="http://www.w3.org/2000/svg">
<path fill-rule="evenodd" clip-rule="evenodd" d="M22.667 4.20732C22.667 3.75463 22.487 3.3205 22.167 3.00001C21.8465 2.68001 21.4124 2.5 20.9597 2.5C17.7558 2.5 7.57821 2.5 4.37431 2.5C3.92163 2.5 3.48748 2.68001 3.16699 3.00001C2.84699 3.3205 2.66699 3.75463 2.66699 4.20732V20.7927C2.66699 21.2454 2.84699 21.6795 3.16699 22C3.48748 22.32 3.92163 22.5 4.37431 22.5H20.9597C21.4124 22.5 21.8465 22.32 22.167 22C22.487 21.6795 22.667 21.2454 22.667 20.7927V4.20732ZM21.2036 10.3049V20.7927C21.2036 20.8576 21.1777 20.9195 21.1324 20.9654C21.0865 21.0107 21.0246 21.0366 20.9597 21.0366H10.4719V10.3049H21.2036ZM9.00846 21.0366H4.37431C4.30943 21.0366 4.24748 21.0107 4.20162 20.9654C4.15626 20.9195 4.13041 20.8576 4.13041 20.7927V10.3049H9.00846V21.0366ZM21.2036 8.84146H4.13041V4.20732C4.13041 4.14244 4.15626 4.08049 4.20162 4.03463C4.24748 3.98927 4.30943 3.96341 4.37431 3.96341H20.9597C21.0246 3.96341 21.0865 3.98927 21.1324 4.03463C21.1777 4.08049 21.2036 4.14244 21.2036 4.20732V8.84146Z" fill="black"/>
</svg>
