<svg width="24" height="25" viewBox="0 0 24 25" fill="none" xmlns="http://www.w3.org/2000/svg">
<path fill-rule="evenodd" clip-rule="evenodd" d="M13.717 15.7913C14.921 15.7913 15.901 16.7643 15.901 17.9603V21.0363C15.901 21.2933 16.107 21.4993 16.371 21.5053H18.277C19.779 21.5053 21 20.2993 21 18.8173V10.0933C20.993 9.58325 20.75 9.10325 20.333 8.78425L13.74 3.52625C12.855 2.82525 11.617 2.82525 10.729 3.52825L4.181 8.78225C3.748 9.11125 3.505 9.59125 3.5 10.1103V18.8173C3.5 20.2993 4.721 21.5053 6.223 21.5053H8.147C8.418 21.5053 8.638 21.2903 8.638 21.0263C8.638 20.9683 8.645 20.9103 8.657 20.8553V17.9603C8.657 16.7713 9.631 15.7993 10.826 15.7913H13.717ZM18.277 23.0053H16.353C15.251 22.9793 14.401 22.1143 14.401 21.0363V17.9603C14.401 17.5913 14.094 17.2913 13.717 17.2913H10.831C10.462 17.2933 10.157 17.5943 10.157 17.9603V21.0263C10.157 21.1013 10.147 21.1733 10.126 21.2413C10.018 22.2313 9.172 23.0053 8.147 23.0053H6.223C3.894 23.0053 2 21.1263 2 18.8173V10.1033C2.01 9.10925 2.468 8.19925 3.259 7.60025L9.794 2.35525C11.233 1.21525 13.238 1.21525 14.674 2.35325L21.256 7.60325C22.029 8.19225 22.487 9.10025 22.5 10.0823V18.8173C22.5 21.1263 20.606 23.0053 18.277 23.0053Z" fill="#101223"/>
</svg>
