<svg width="16" height="17" viewBox="0 0 16 17" fill="none" xmlns="http://www.w3.org/2000/svg">
<path d="M6.09018 14.3491V12.3106C6.09018 11.7902 6.51511 11.3684 7.03928 11.3684H8.9554C9.20712 11.3684 9.44853 11.4676 9.62652 11.6443C9.80451 11.821 9.9045 12.0607 9.9045 12.3106V14.3491C9.90291 14.5654 9.98837 14.7734 10.1419 14.9269C10.2954 15.0805 10.5044 15.1668 10.7223 15.1668H12.0295C12.6401 15.1684 13.2262 14.9287 13.6584 14.5007C14.0907 14.0727 14.3337 13.4915 14.3337 12.8854V7.07807C14.3337 6.58847 14.115 6.12406 13.7367 5.80994L9.28967 2.28408C8.5161 1.66587 7.40773 1.68583 6.65725 2.33148L2.31167 5.80994C1.91549 6.1148 1.67869 6.58059 1.66699 7.07807V12.8795C1.66699 14.1427 2.69858 15.1668 3.97111 15.1668H5.24852C5.70114 15.1668 6.06899 14.8043 6.07227 14.355L6.09018 14.3491Z" fill="white"/>
</svg>
