<svg width="25" height="24" viewBox="0 0 25 24" fill="none" xmlns="http://www.w3.org/2000/svg">
<path d="M12.4844 19C12.683 19.0012 12.8775 18.9432 13.043 18.8334C13.2086 18.7236 13.3376 18.5669 13.4138 18.3835C13.49 18.2001 13.5098 17.9981 13.4707 17.8033C13.4316 17.6086 13.3354 17.4299 13.1944 17.29L7.89442 12L13.1944 6.71003C13.3582 6.51873 13.4439 6.27265 13.4341 6.02097C13.4244 5.7693 13.3201 5.53056 13.142 5.35246C12.9639 5.17437 12.7251 5.07004 12.4735 5.06032C12.2218 5.05059 11.9757 5.1362 11.7844 5.30003L5.78442 11.3C5.59817 11.4874 5.49363 11.7408 5.49363 12.005C5.49363 12.2692 5.59817 12.5227 5.78442 12.71L11.7844 18.71C11.9707 18.8948 12.2221 18.9989 12.4844 19Z" fill="#9496A1"/>
<path d="M18.4844 19.0002C18.683 19.0013 18.8775 18.9433 19.043 18.8335C19.2086 18.7237 19.3376 18.5671 19.4138 18.3837C19.49 18.2002 19.5098 17.9982 19.4707 17.8035C19.4316 17.6088 19.3354 17.4301 19.1944 17.2902L13.8944 12.0002L19.1944 6.71018C19.3827 6.52188 19.4885 6.26649 19.4885 6.00019C19.4885 5.73388 19.3827 5.47849 19.1944 5.29019C19.0061 5.10188 18.7507 4.99609 18.4844 4.99609C18.2181 4.99609 17.9627 5.10188 17.7744 5.29019L11.7744 11.2902C11.5882 11.4775 11.4836 11.731 11.4836 11.9952C11.4836 12.2594 11.5882 12.5128 11.7744 12.7002L17.7744 18.7002C17.867 18.7947 17.9775 18.8698 18.0994 18.9213C18.2212 18.9728 18.3521 18.9996 18.4844 19.0002Z" fill="#9496A1"/>
</svg>
