<svg width="40" height="40" viewBox="0 0 40 40" fill="none" xmlns="http://www.w3.org/2000/svg">
<rect width="40" height="40" rx="10" fill="#F49984"/>
<g clip-path="url(#clip0_445_6318)">
<path d="M22.4999 20.8332C22.0391 20.8332 21.6666 21.2066 21.6666 21.6665V24.9999C21.6666 25.459 21.2932 25.8331 20.8332 25.8331H18.3332V13.3333C18.3332 12.6216 17.8799 11.9858 17.1983 11.7491L16.9515 11.6666H20.8332C21.2932 11.6666 21.6666 12.0407 21.6666 12.5V15C21.6666 15.4599 22.0391 15.8332 22.4999 15.8332C22.9607 15.8332 23.3331 15.4599 23.3331 15V12.5C23.3331 11.1217 22.2115 10 20.8332 10H11.875C11.8432 10 11.8167 10.0142 11.7859 10.0183C11.7457 10.015 11.7074 10 11.6667 10C10.7475 10 10 10.7474 10 11.6666V26.6664C10 27.3781 10.4533 28.0139 11.1349 28.2506L16.15 29.9223C16.32 29.9748 16.489 29.9998 16.6666 29.9998C17.5858 29.9998 18.3332 29.2523 18.3332 28.3331V27.4998H20.8332C22.2115 27.4998 23.3331 26.3782 23.3331 24.9999V21.6665C23.3331 21.2066 22.9607 20.8332 22.4999 20.8332V20.8332Z" fill="white"/>
<path d="M29.7555 17.7441L26.4221 14.4109C26.1839 14.1726 25.8255 14.1008 25.5139 14.2299C25.2031 14.3592 24.9997 14.6633 24.9997 15V17.5H21.6664C21.2064 17.5 20.833 17.8732 20.833 18.3333C20.833 18.7933 21.2064 19.1666 21.6664 19.1666H24.9997V21.6665C24.9997 22.0033 25.2031 22.3074 25.5139 22.4366C25.8255 22.5657 26.1839 22.494 26.4221 22.2558L29.7555 18.9224C30.0813 18.5966 30.0813 18.0699 29.7555 17.7441V17.7441Z" fill="white"/>
</g>
<defs>
<clipPath id="clip0_445_6318">
<rect width="20" height="20" fill="white" transform="translate(10 10)"/>
</clipPath>
</defs>
</svg>
