<svg width="17" height="17" viewBox="0 0 17 17" fill="none" xmlns="http://www.w3.org/2000/svg">
<g clip-path="url(#clip0_876_2429)">
<path d="M11.2291 6.94016C10.9742 7.13747 11.9922 8.15813 11.7673 8.38306C11.0383 9.11128 9.21303 11.8509 8.83259 12.7918C8.45256 11.8509 6.70715 9.03069 5.97852 8.30247C5.75359 8.07713 6.69131 7.13747 6.43603 6.93978C7.01684 5.70944 7.81609 4.55703 8.83259 3.54053C9.84947 4.55703 10.6483 5.70984 11.2291 6.94016Z" fill="white"/>
<path d="M8.83276 10.1093C9.67767 11.6487 9.46654 12.8675 8.7052 13.2354C8.62951 13.272 5.27767 14.304 5.55742 13.4273C4.7816 11.5144 4.22664 11.4311 4.07501 9.01721V9.01683C4.03854 7.98268 4.2136 6.92433 4.62664 5.90283C5.29073 6.17118 5.89651 6.52239 6.43623 6.94008C6.69151 7.13777 6.93182 7.34968 7.15676 7.57502C7.88535 8.30318 8.45273 9.16846 8.83276 10.1093Z" fill="#F3F4F8"/>
<path d="M13.5914 9.01724C13.2626 15.3646 9.51425 13.2781 9.09296 15.6271C9.00612 16.1113 7.55996 15.4748 7.52846 15.3627C7.42118 14.9805 8.14581 14.5692 8.0019 14.0927C7.93437 13.8692 8.36859 13.4301 8.28162 13.2161C8.27815 13.132 8.27703 13.0476 8.27703 12.9635C8.27703 11.9777 8.46974 11.0088 8.83328 10.1094C9.21371 9.16849 9.78068 8.30321 10.5097 7.57502C10.7346 7.35008 10.9749 7.13777 11.2298 6.94046C11.77 6.52243 12.3757 6.17118 13.0402 5.90283C13.4533 6.92433 13.6279 7.98268 13.5915 9.01683V9.01724H13.5914Z" fill="#F3F4F8"/>
<path d="M16.4361 8.46533C16.5259 8.46533 16.6157 8.46686 16.7063 8.46993C16.5597 12.6718 13.0345 15.959 8.83301 15.8123C8.94126 12.7118 10.889 10.1091 13.5908 9.01693C14.4718 8.66071 15.4326 8.46533 16.4361 8.46533Z" fill="white"/>
<path d="M8.28165 13.2158C8.60834 14.02 8.80143 14.8945 8.83368 15.8123C4.63174 15.959 1.10659 12.6718 0.959961 8.46993C1.05055 8.46686 1.1404 8.46533 1.23021 8.46533C2.23368 8.46533 3.1949 8.66074 4.07552 9.01696C5.97762 9.78586 7.50584 11.3029 8.28165 13.2158Z" fill="white"/>
<path d="M1.12091 7.34095C1.27992 7.34095 1.40882 7.21205 1.40882 7.05304C1.40882 6.89404 1.27992 6.76514 1.12091 6.76514C0.961908 6.76514 0.833008 6.89404 0.833008 7.05304C0.833008 7.21205 0.961908 7.34095 1.12091 7.34095Z" fill="white"/>
<path d="M4.62677 4.14466C4.78578 4.14466 4.91468 4.01576 4.91468 3.85675C4.91468 3.69775 4.78578 3.56885 4.62677 3.56885C4.46777 3.56885 4.33887 3.69775 4.33887 3.85675C4.33887 4.01576 4.46777 4.14466 4.62677 4.14466Z" fill="white"/>
<path d="M8.83283 1.75892C8.99183 1.75892 9.12073 1.63002 9.12073 1.47101C9.12073 1.31201 8.99183 1.18311 8.83283 1.18311C8.67382 1.18311 8.54492 1.31201 8.54492 1.47101C8.54492 1.63002 8.67382 1.75892 8.83283 1.75892Z" fill="white"/>
<path d="M13.0399 4.14466C13.1989 4.14466 13.3278 4.01576 13.3278 3.85675C13.3278 3.69775 13.1989 3.56885 13.0399 3.56885C12.8809 3.56885 12.752 3.69775 12.752 3.85675C12.752 4.01576 12.8809 4.14466 13.0399 4.14466Z" fill="white"/>
<path d="M16.5447 7.34095C16.7037 7.34095 16.8326 7.21205 16.8326 7.05304C16.8326 6.89404 16.7037 6.76514 16.5447 6.76514C16.3857 6.76514 16.2568 6.89404 16.2568 7.05304C16.2568 7.21205 16.3857 7.34095 16.5447 7.34095Z" fill="white"/>
</g>
<defs>
<clipPath id="clip0_876_2429">
<rect width="16" height="16" fill="white" transform="translate(0.833008 0.5)"/>
</clipPath>
</defs>
</svg>
