<svg width="25" height="25" viewBox="0 0 25 25" fill="none" xmlns="http://www.w3.org/2000/svg">
<g clip-path="url(#clip0_876_2337)">
<path d="M10.1677 10.6289L10.2384 10.5582C9.98953 10.3091 9.73051 10.0727 9.4622 9.84869C10.2126 8.35277 11.1757 6.97689 12.3327 5.74838C13.489 6.97607 14.4521 8.35204 15.203 9.84934C14.935 10.0731 14.6762 10.3092 14.4275 10.558C13.5836 11.4015 12.8822 12.3574 12.333 13.4091C11.7841 12.3579 11.0827 11.402 10.2383 10.5582L10.1677 10.6289ZM10.1677 10.6289C9.9022 10.3632 9.62508 10.112 9.33731 9.87503L12.2768 13.518C11.7279 12.4511 11.0216 11.4823 10.1677 10.6289ZM23.9279 11.7217C22.5243 11.6726 21.1497 11.8707 19.8536 12.2966C19.8119 10.9193 19.527 9.56915 19.0034 8.27344L19.0034 8.27342C18.8951 8.00553 18.5905 7.87612 18.3222 7.98425L18.3221 7.98428C17.5137 8.31088 16.7543 8.71977 16.0493 9.20621C15.1809 7.51985 14.0575 5.98144 12.7025 4.62696L12.7025 4.62695C12.4981 4.42266 12.1669 4.42262 11.9626 4.62704C10.607 5.98258 9.4837 7.52075 8.61598 9.20556C7.91135 8.71944 7.15225 8.31074 6.34411 7.98428L6.34409 7.98427C6.076 7.87604 5.77118 8.00549 5.66288 8.27343L5.66287 8.27344C5.13846 9.57121 4.85337 10.9235 4.81235 12.3032C3.53348 11.8803 2.16056 11.6721 0.738069 11.7217L0.738044 11.7217C0.449205 11.7318 0.223248 11.9741 0.233331 12.2629L0.333271 12.2594L0.233331 12.2629C0.453985 18.5811 5.66358 23.5703 11.9371 23.5703C12.0685 23.5703 12.2009 23.568 12.333 23.5636C12.4655 23.5681 12.5973 23.5703 12.729 23.5703C19.002 23.5703 24.2122 18.5808 24.4328 12.2629L24.4328 12.2629C24.4427 11.9741 24.2168 11.7318 23.9279 11.7217ZM6.44442 9.16782C7.58644 9.69572 8.61168 10.4107 9.49822 11.2982L9.49828 11.2982C10.468 12.2674 11.2305 13.3984 11.7685 14.6621C11.4457 15.5044 11.2227 16.372 11.1011 17.2561C9.85421 15.2536 8.02175 13.6588 5.85386 12.7035C5.84801 11.4975 6.04606 10.3119 6.44442 9.16782ZM12.8181 14.851L12.8181 14.851C13.3601 13.5097 14.1505 12.3146 15.1676 11.2981L15.1677 11.298C16.0546 10.4105 17.08 9.69563 18.2219 9.16782C18.6193 10.3093 18.8173 11.492 18.8124 12.695C17.6189 13.2193 16.5099 13.947 15.5288 14.862C14.0168 16.2718 12.9278 18.0155 12.331 19.9384C12.2445 19.6614 12.148 19.389 12.0419 19.1215C12.0395 19.0373 12.0383 18.9484 12.0383 18.8512C12.0383 17.4768 12.3006 16.131 12.8181 14.851ZM8.42358 15.6275C10.3768 17.4489 11.5556 19.8802 11.7782 22.5226C6.31493 22.4416 1.77318 18.2064 1.31136 12.7621C3.96259 12.8 6.47052 13.8062 8.42358 15.6275ZM23.3547 12.7621C22.8928 18.2067 18.3516 22.4421 12.8879 22.5225C13.1105 19.8802 14.2892 17.4489 16.2424 15.6275C18.1957 13.806 20.7032 12.7998 23.3547 12.7621Z" fill="#101223" stroke="#101223" stroke-width="0.2"/>
<path d="M0.993641 10.5844C1.22744 10.5844 1.41697 10.3949 1.41697 10.1611C1.41697 9.92732 1.22744 9.73779 0.993641 9.73779C0.759843 9.73779 0.570312 9.92732 0.570312 10.1611C0.570312 10.3949 0.759843 10.5844 0.993641 10.5844Z" fill="#101223"/>
<path d="M6.14794 5.88474C6.38174 5.88474 6.57127 5.69521 6.57127 5.46141C6.57127 5.22762 6.38174 5.03809 6.14794 5.03809C5.91414 5.03809 5.72461 5.22762 5.72461 5.46141C5.72461 5.69521 5.91414 5.88474 6.14794 5.88474Z" fill="#101223"/>
<path d="M12.3325 2.37644C12.5663 2.37644 12.7558 2.18691 12.7558 1.95311C12.7558 1.71932 12.5663 1.52979 12.3325 1.52979C12.0987 1.52979 11.9092 1.71932 11.9092 1.95311C11.9092 2.18691 12.0987 2.37644 12.3325 2.37644Z" fill="#101223"/>
<path d="M18.5181 5.88474C18.7519 5.88474 18.9414 5.69521 18.9414 5.46141C18.9414 5.22762 18.7519 5.03809 18.5181 5.03809C18.2843 5.03809 18.0947 5.22762 18.0947 5.46141C18.0947 5.69521 18.2843 5.88474 18.5181 5.88474Z" fill="#101223"/>
<path d="M23.6724 10.5844C23.9061 10.5844 24.0957 10.3949 24.0957 10.1611C24.0957 9.92732 23.9061 9.73779 23.6724 9.73779C23.4386 9.73779 23.249 9.92732 23.249 10.1611C23.249 10.3949 23.4386 10.5844 23.6724 10.5844Z" fill="#101223"/>
</g>
<defs>
<clipPath id="clip0_876_2337">
<rect width="24" height="24" fill="white" transform="translate(0.333008 0.5)"/>
</clipPath>
</defs>
</svg>
