<svg width="40" height="40" viewBox="0 0 40 40" fill="none" xmlns="http://www.w3.org/2000/svg">
<rect width="40" height="40" rx="10" fill="#F8C65A"/>
<path d="M30 16.3672V15.3125C30 14.1044 29.0206 13.125 27.8125 13.125H12.1875C10.9794 13.125 10 14.1044 10 15.3125V16.3672C10 16.475 10.0875 16.5625 10.1953 16.5625H29.8047C29.9125 16.5625 30 16.475 30 16.3672Z" fill="white"/>
<path d="M10 18.0078V24.6875C10 25.8956 10.9794 26.875 12.1875 26.875H27.8125C29.0206 26.875 30 25.8956 30 24.6875V18.0078C30 17.9 29.9125 17.8125 29.8047 17.8125H10.1953C10.0875 17.8125 10 17.9 10 18.0078ZM15 23.125C15 23.4702 14.7202 23.75 14.375 23.75H13.75C13.4048 23.75 13.125 23.4702 13.125 23.125V22.5C13.125 22.1548 13.4048 21.875 13.75 21.875H14.375C14.7202 21.875 15 22.1548 15 22.5V23.125Z" fill="white"/>
</svg>
