<svg width="49" height="48" viewBox="0 0 49 48" fill="none" xmlns="http://www.w3.org/2000/svg">
<path d="M24.5 4C35.5232 4 44.5 12.9725 44.5 24.0116C44.5 35.0275 35.5232 44 24.5 44C13.4768 44 4.5 35.0275 4.5 24.0116C4.5 12.9725 13.4768 4 24.5 4ZM22.222 16.0598C21.7973 16.0598 21.3919 16.1563 21.0058 16.3493C20.5232 16.6194 20.1371 17.0439 19.9247 17.5456C19.7896 17.8929 19.5772 18.9349 19.5772 18.9542C19.3649 20.0926 19.249 21.945 19.249 23.9904C19.249 25.9411 19.3649 27.7144 19.5386 28.8722C19.5579 28.8915 19.7703 30.1843 20.0019 30.6281C20.4266 31.4385 21.2568 31.9402 22.1448 31.9402H22.222C22.8012 31.9209 24.0174 31.4192 24.0174 31.3999C26.0637 30.5509 30.0985 27.9074 31.7201 26.1515L31.8359 26.0357C32.0483 25.8234 32.3185 25.4954 32.3764 25.4182C32.6853 25.013 32.8398 24.5113 32.8398 24.0116C32.8398 23.4501 32.666 22.9291 32.3378 22.5046C32.2606 22.4274 31.971 22.0994 31.7008 21.8292C30.1178 20.1312 25.9865 17.3526 23.8243 16.5036C23.4961 16.3705 22.666 16.0791 22.222 16.0598Z" fill="#101223"/>
</svg>
