<svg width="24" height="25" viewBox="0 0 24 25" fill="none" xmlns="http://www.w3.org/2000/svg">
<path fill-rule="evenodd" clip-rule="evenodd" d="M19.84 18.6929C19.84 21.9889 15.32 22.3699 11.921 22.3699L11.6778 22.3697C9.5122 22.3644 4 22.2277 4 18.6729C4 15.4442 8.33835 15.0127 11.7115 14.9964L12.1642 14.9961C14.3296 15.0014 19.84 15.1381 19.84 18.6929ZM11.921 16.4959C7.66 16.4959 5.5 17.2279 5.5 18.6729C5.5 20.1309 7.66 20.8699 11.921 20.8699C16.181 20.8699 18.34 20.1379 18.34 18.6929C18.34 17.2349 16.181 16.4959 11.921 16.4959ZM11.921 2.49951C14.849 2.49951 17.23 4.88151 17.23 7.80951C17.23 10.7375 14.849 13.1185 11.921 13.1185H11.889C8.967 13.1095 6.6 10.7265 6.60997 7.80651C6.60997 4.88151 8.992 2.49951 11.921 2.49951ZM11.921 3.92751C9.78 3.92751 8.03798 5.66851 8.03798 7.80951C8.031 9.94351 9.76 11.6835 11.892 11.6915L11.921 12.4055V11.6915C14.061 11.6915 15.802 9.94951 15.802 7.80951C15.802 5.66851 14.061 3.92751 11.921 3.92751Z" fill="#101223"/>
</svg>
