<svg width="40" height="40" viewBox="0 0 40 40" fill="none" xmlns="http://www.w3.org/2000/svg">
<rect width="40" height="40" rx="10" fill="#81A1D2"/>
<path fill-rule="evenodd" clip-rule="evenodd" d="M25.4689 21.7481H21.3028C21.6466 20.7538 21.8293 19.9169 21.8594 19.2033C21.9305 17.5199 21.1059 16.8536 20.4016 16.5908C20.3721 16.5796 20.3415 16.5717 20.3102 16.5671C19.7645 16.484 19.5702 16.7315 19.4415 17.0111L19.4246 17.0478C19.4057 17.088 19.3934 17.1307 19.3881 17.1745C19.2139 18.6106 18.5777 19.9581 17.5687 21.028V29.0507C17.6813 29.0904 17.7963 29.1235 17.913 29.1497C17.9446 29.1569 17.9769 29.1607 18.0094 29.1612C18.3582 29.1648 18.7739 29.1666 19.2533 29.1666C19.7316 29.1666 20.2731 29.1648 20.8741 29.1612H24.7988C25.0283 29.1612 25.2536 29.1025 25.4519 28.991C25.6501 28.8796 25.814 28.7193 25.9269 28.5268C26.0397 28.3342 26.0975 28.1161 26.0943 27.895C26.091 27.6738 26.0269 27.4574 25.9084 27.268C26.1704 27.0767 26.347 26.7965 26.4024 26.4843C26.4579 26.1721 26.388 25.8512 26.2069 25.5869C26.4611 25.3791 26.6223 25.0848 26.657 24.7653C26.6916 24.4458 26.5971 24.1257 26.393 23.8717C26.572 23.6963 26.6932 23.4738 26.7414 23.2322C26.7896 22.9905 26.7626 22.7406 26.6638 22.5137C26.5651 22.2868 26.399 22.0931 26.1864 21.9569C25.9738 21.8207 25.7242 21.7482 25.4689 21.7483V21.7481ZM16.6977 14.5458C16.6714 14.4674 16.6222 14.398 16.5561 14.3458C16.4899 14.2936 16.4097 14.2608 16.3248 14.2514L15.1078 14.1164L14.5988 13.0432C14.5634 12.9681 14.5064 12.9044 14.4345 12.8598C14.3626 12.8151 14.2789 12.7914 14.1933 12.7914C14.1078 12.7914 14.0241 12.8151 13.9522 12.8598C13.8803 12.9044 13.8232 12.9681 13.7879 13.0432L13.2789 14.1164L12.0619 14.2514C11.977 14.2607 11.8967 14.2935 11.8306 14.3456C11.7644 14.3978 11.7152 14.4671 11.6888 14.5455C11.6624 14.6238 11.6599 14.7078 11.6816 14.7875C11.7034 14.8672 11.7484 14.9391 11.8114 14.9948L12.7134 15.7933L12.4706 16.9505C12.4538 17.0312 12.4614 17.1149 12.4924 17.1915C12.5235 17.2682 12.5767 17.3346 12.6458 17.383C12.7148 17.4314 12.7968 17.4596 12.8821 17.4645C12.9673 17.4693 13.0522 17.4504 13.1266 17.4101L14.1932 16.8296L15.2601 17.4101C15.3345 17.4506 15.4194 17.4696 15.5047 17.4649C15.59 17.4602 15.6721 17.4319 15.7412 17.3835C15.8104 17.3351 15.8636 17.2685 15.8946 17.1918C15.9256 17.115 15.9331 17.0313 15.9161 16.9506L15.6732 15.7934L16.5753 14.9949C16.6382 14.9392 16.6832 14.8673 16.7049 14.7877C16.7266 14.7081 16.7241 14.6241 16.6977 14.5458L16.6977 14.5458ZM28.3118 14.5458C28.3382 14.6241 28.3407 14.708 28.3191 14.7876C28.2974 14.8672 28.2524 14.9392 28.1895 14.9948L27.2874 15.7933L27.5302 16.9505C27.5472 17.0313 27.5397 17.115 27.5087 17.1917C27.4777 17.2685 27.4245 17.335 27.3554 17.3834C27.2863 17.4318 27.2042 17.4601 27.1189 17.4648C27.0336 17.4695 26.9486 17.4505 26.8742 17.4101L25.8076 16.8296L24.7409 17.4101C24.6665 17.4506 24.5816 17.4696 24.4963 17.4648C24.411 17.4601 24.3289 17.4319 24.2597 17.3835C24.1906 17.335 24.1374 17.2685 24.1064 17.1917C24.0754 17.115 24.0679 17.0313 24.0849 16.9505L24.3277 15.7933L23.4257 14.9948C23.3627 14.9391 23.3177 14.8672 23.296 14.7875C23.2742 14.7078 23.2767 14.6238 23.3031 14.5455C23.3295 14.4671 23.3787 14.3978 23.4449 14.3456C23.511 14.2935 23.5913 14.2607 23.6762 14.2514L24.8928 14.1164L25.402 13.0432C25.4374 12.9681 25.4944 12.9044 25.5663 12.8598C25.6382 12.8152 25.7219 12.7914 25.8074 12.7914C25.893 12.7914 25.9767 12.8152 26.0486 12.8598C26.1205 12.9044 26.1775 12.9681 26.2129 13.0432L26.722 14.1164L27.9387 14.2514C28.0236 14.2608 28.1039 14.2936 28.17 14.3458C28.2362 14.398 28.2853 14.4674 28.3117 14.5458H28.3118ZM23.0011 12.9351C22.9747 12.8567 22.9255 12.7872 22.8594 12.7348C22.7933 12.6824 22.713 12.6493 22.628 12.6395L21.0613 12.4672L20.4058 11.0835C20.37 11.0089 20.3128 10.9456 20.241 10.9013C20.1691 10.857 20.0856 10.8335 20.0003 10.8335C19.915 10.8335 19.8315 10.857 19.7597 10.9013C19.6878 10.9456 19.6306 11.0089 19.5949 11.0835L18.9393 12.4671L17.3726 12.6394C17.2878 12.649 17.2075 12.6818 17.1415 12.7341C17.0754 12.7863 17.0263 12.8557 16.9999 12.934C16.9735 13.0123 16.971 13.0963 16.9927 13.1759C17.0143 13.2556 17.0592 13.3276 17.122 13.3834L18.2835 14.4118L17.9708 15.9015C17.9539 15.9822 17.9614 16.0658 17.9924 16.1426C18.0234 16.2193 18.0767 16.2858 18.1458 16.3342C18.2149 16.3826 18.297 16.4108 18.3823 16.4155C18.4675 16.4202 18.5524 16.4012 18.6268 16.3608L20.0003 15.614L21.3738 16.3608C21.4482 16.4013 21.5331 16.4203 21.6183 16.4156C21.7036 16.4108 21.7857 16.3826 21.8548 16.3342C21.9239 16.2858 21.9771 16.2193 22.0081 16.1426C22.0392 16.0659 22.0467 15.9822 22.0298 15.9015L21.7171 14.4119L22.8786 13.3834C22.9415 13.3278 22.9865 13.256 23.0082 13.1765C23.0299 13.0971 23.0275 13.0132 23.0012 12.935L23.0011 12.9351ZM16.6772 21.8259C16.5987 21.7056 16.4898 21.6064 16.3607 21.5376C16.2317 21.4689 16.0866 21.4328 15.9392 21.4327H12.8622C12.6309 21.4329 12.4091 21.5216 12.2455 21.6792C12.0819 21.8368 11.9899 22.0506 11.9896 22.2735V28.3253C11.9898 28.5484 12.0818 28.7622 12.2454 28.92C12.409 29.0778 12.6308 29.1665 12.8622 29.1668H15.9392C16.0866 29.1668 16.2316 29.1307 16.3607 29.062C16.4897 28.9933 16.5986 28.8942 16.6772 28.774V21.8259ZM13.1172 23.0111C13.1172 22.8971 13.1641 22.7878 13.2477 22.7073C13.3313 22.6267 13.4447 22.5814 13.5629 22.5814H13.8901C14.0084 22.5814 14.1217 22.6267 14.2053 22.7073C14.2889 22.7878 14.3359 22.8971 14.3359 23.0111C14.3359 23.1251 14.2889 23.2344 14.2053 23.3149C14.1217 23.3955 14.0084 23.4408 13.8901 23.4408H13.563C13.5044 23.4408 13.4465 23.4297 13.3924 23.4081C13.3383 23.3865 13.2891 23.3549 13.2477 23.315C13.2063 23.2751 13.1735 23.2277 13.1511 23.1755C13.1287 23.1234 13.1172 23.0675 13.1172 23.0111Z" fill="white"/>
</svg>
