<svg width="25" height="24" viewBox="0 0 25 24" fill="none" xmlns="http://www.w3.org/2000/svg">
<path d="M12.5 19C12.3013 19.0012 12.1069 18.9432 11.9413 18.8334C11.7758 18.7236 11.6468 18.5669 11.5706 18.3835C11.4944 18.2001 11.4746 17.9981 11.5137 17.8033C11.5527 17.6086 11.6489 17.4299 11.79 17.29L17.09 12L11.79 6.71003C11.6261 6.51873 11.5405 6.27265 11.5502 6.02097C11.56 5.7693 11.6643 5.53056 11.8424 5.35246C12.0205 5.17437 12.2592 5.07004 12.5109 5.06032C12.7626 5.05059 13.0087 5.1362 13.2 5.30003L19.2 11.3C19.3862 11.4874 19.4907 11.7408 19.4907 12.005C19.4907 12.2692 19.3862 12.5227 19.2 12.71L13.2 18.71C13.0137 18.8948 12.7623 18.9989 12.5 19Z" fill="#9496A1"/>
<path d="M6.49996 19.0002C6.30133 19.0013 6.10686 18.9433 5.94134 18.8335C5.77582 18.7237 5.64675 18.5671 5.57059 18.3837C5.49442 18.2002 5.47461 17.9982 5.51368 17.8035C5.55275 17.6088 5.64893 17.4301 5.78996 17.2902L11.09 12.0002L5.78996 6.71018C5.60165 6.52188 5.49586 6.26649 5.49586 6.00019C5.49586 5.73388 5.60165 5.47849 5.78996 5.29019C5.97826 5.10188 6.23366 4.99609 6.49996 4.99609C6.76626 4.99609 7.02166 5.10188 7.20996 5.29019L13.21 11.2902C13.3962 11.4775 13.5008 11.731 13.5008 11.9952C13.5008 12.2594 13.3962 12.5128 13.21 12.7002L7.20996 18.7002C7.11734 18.7947 7.0069 18.8698 6.88502 18.9213C6.76315 18.9728 6.63227 18.9996 6.49996 19.0002Z" fill="#9496A1"/>
</svg>
