<svg width="40" height="40" viewBox="0 0 40 40" fill="none" xmlns="http://www.w3.org/2000/svg">
<rect width="40" height="40" rx="10" fill="#60D0D7"/>
<g clip-path="url(#clip0_445_6302)">
<path d="M29.4413 19.4893C29.9481 18.9955 30.127 18.2708 29.9082 17.5983C29.6899 16.9255 29.1192 16.4444 28.419 16.3426L24.0952 15.7144C23.8757 15.6823 23.6861 15.5446 23.588 15.3458L21.6543 11.4275C21.3413 10.7934 20.7073 10.3994 20 10.3994C19.2926 10.3994 18.6587 10.7934 18.3456 11.4275C18.3456 11.4276 16.412 15.3458 16.412 15.3458C16.3138 15.5446 16.1242 15.6824 15.905 15.7143L11.5811 16.3426C10.8807 16.4444 10.3101 16.9255 10.0918 17.5979C9.87297 18.2708 10.0518 18.9955 10.5585 19.4892L13.6873 22.5393C13.8461 22.694 13.9185 22.9168 13.8811 23.135L13.1423 27.4418C13.023 28.1391 13.3042 28.8304 13.8763 29.2459C14.4484 29.6617 15.193 29.7155 15.8194 29.3865L19.6866 27.3532C19.8828 27.2502 20.1171 27.2502 20.3131 27.3531L24.1806 29.3865C24.807 29.7156 25.5516 29.6617 26.1238 29.2459C26.6958 28.8304 26.977 28.1391 26.8577 27.4418L26.1189 23.1352C26.0815 22.9168 26.1539 22.694 26.3127 22.5392L29.4413 19.4893Z" fill="white"/>
</g>
<defs>
<clipPath id="clip0_445_6302">
<rect width="20" height="20" fill="white" transform="translate(10 10)"/>
</clipPath>
</defs>
</svg>
