<svg width="40" height="40" viewBox="0 0 40 40" fill="none" xmlns="http://www.w3.org/2000/svg">
<rect width="40" height="40" rx="10" fill="#8BBD8A"/>
<path d="M13.9394 30H26.0606C26.5626 30 26.9697 29.593 26.9697 29.0909V18.7879C26.9697 18.2858 26.5626 17.8788 26.0606 17.8788H25.1515V15.1515C25.1515 12.311 22.8405 10 20 10C17.1594 10 14.8485 12.311 14.8485 15.1515V17.8788H13.9394C13.4373 17.8788 13.0303 18.2858 13.0303 18.7879V29.0909C13.0303 29.593 13.4373 30 13.9394 30ZM20.9091 24.2416V25.4545C20.9091 25.9566 20.502 26.3636 20 26.3636C19.4979 26.3636 19.0909 25.9566 19.0909 25.4545V24.2416C18.7231 23.9649 18.4848 23.525 18.4848 23.0303C18.4848 22.1948 19.1645 21.5152 20 21.5152C20.8354 21.5152 21.5151 22.1948 21.5151 23.0303C21.5151 23.525 21.2768 23.9649 20.9091 24.2416ZM16.6666 15.1515C16.6666 13.3135 18.162 11.8182 20 11.8182C21.838 11.8182 23.3333 13.3135 23.3333 15.1515V17.8788H16.6666V15.1515Z" fill="white"/>
</svg>
